<?xml version="1.0" encoding="UTF-8" standalone="no"?>
<!-- Created with Inkscape (http://www.inkscape.org/) -->

<svg
   width="180"
   height="180"
   viewBox="0 0 47.625 47.625"
   version="1.1"
   id="svg5"
   inkscape:version="1.1 (c4e8f9ed74, 2021-05-24)"
   sodipodi:docname="LogoBlanco.svg"
   xmlns:inkscape="http://www.inkscape.org/namespaces/inkscape"
   xmlns:sodipodi="http://sodipodi.sourceforge.net/DTD/sodipodi-0.dtd"
   xmlns="http://www.w3.org/2000/svg"
   xmlns:svg="http://www.w3.org/2000/svg">
  <sodipodi:namedview
     id="namedview7"
     pagecolor="#505050"
     bordercolor="#eeeeee"
     borderopacity="1"
     inkscape:pageshadow="0"
     inkscape:pageopacity="0"
     inkscape:pagecheckerboard="0"
     inkscape:document-units="px"
     showgrid="false"
     inkscape:zoom="2.1566757"
     inkscape:cx="66.073912"
     inkscape:cy="85.780166"
     inkscape:window-width="1920"
     inkscape:window-height="1052"
     inkscape:window-x="0"
     inkscape:window-y="0"
     inkscape:window-maximized="1"
     inkscape:current-layer="layer1" />
  <defs
     id="defs2" />
  <g
     inkscape:label="Capa 1"
     inkscape:groupmode="layer"
     id="layer1">
    <path
       style="fill:#f9f9f9;stroke-width:0.0814555"
       d="M 16.976837,42.162639 C 16.666815,42.053244 16.190301,41.828121 15.917912,41.662354 15.078278,41.15138 13.708343,40.120431 13.141905,39.573264 12.953358,39.391129 12.404258,39.055996 11.838614,38.777819 9.8234084,37.78677 8.9861753,37.19563 7.519789,35.728448 5.4656565,33.6732 4.425828,31.611481 3.8282209,28.408987 3.7794628,28.147699 3.5529265,27.513186 3.3248053,26.998959 2.7007008,25.592103 2.5745043,25.034309 2.5626454,23.630167 c -0.010715,-1.266942 0.077008,-1.6993 0.4874409,-2.402944 0.2012225,-0.344968 0.6703884,-0.827283 1.0095134,-1.037803 0.4658927,-0.289216 1.4444479,-0.55058 2.0613757,-0.55058 0.9012841,0 2.2170199,0.435916 2.9184539,0.966914 1.5498767,1.173287 2.3285737,2.607574 2.8982027,5.338198 0.06049,0.289993 0.120267,0.348013 0.676045,0.656124 1.740643,0.964983 2.577919,1.974641 2.682448,3.234721 l 0.04509,0.54346 0.872419,-1.806026 c 1.465916,-3.03464 2.165407,-5.317264 1.738109,-5.671891 -0.09237,-0.07665 -0.180334,-0.07567 -0.402029,0.0045 -0.511279,0.184884 -1.271757,-0.146177 -1.271757,-0.553636 0,-0.134987 -0.07895,-0.23741 -0.257123,-0.333563 -0.395684,-0.213534 -0.577679,-0.419101 -0.530559,-0.599282 0.06902,-0.263903 -0.169255,-0.271619 -0.690762,-0.02236 -0.535538,0.255972 -0.829354,0.271036 -1.072177,0.05499 -0.187977,-0.167256 -0.38179,-0.593722 -0.38179,-0.840089 0,-0.252139 0.22199,-0.680518 0.473774,-0.914246 0.120228,-0.111609 0.394195,-0.362707 0.608813,-0.557997 l 0.390214,-0.355075 -0.170303,-0.488734 c -0.404632,-1.161189 -0.508942,-1.813137 -0.514798,-3.217497 -0.0042,-1.009163 0.03063,-1.506371 0.139809,-1.995662 0.32509,-1.456849 0.894679,-2.749216 1.72321,-3.9098726 0.65237,-0.9138776 1.912126,-2.1115941 2.572623,-2.4459256 0.151205,-0.076536 0.384881,-0.2192144 0.519282,-0.3170564 0.346125,-0.2519774 1.850607,-0.8382546 2.569738,-1.0013985 0.852009,-0.1932853 3.453155,-0.1943041 4.30131,-0.00158 0.669644,0.1520819 2.100477,0.7103159 2.537077,0.9898289 1.82403,1.1677556 2.80471,2.1566146 3.687179,3.7179362 0.848395,1.50104 1.186523,2.708384 1.256331,4.485946 0.05475,1.394276 -0.03975,2.209788 -0.388054,3.348687 -0.279556,0.914101 -0.259289,0.996255 0.349712,1.417586 0.184755,0.127819 0.439601,0.375359 0.566325,0.550083 0.433096,0.597148 0.240571,1.473007 -0.367925,1.673828 -0.258842,0.08542 -0.325705,0.07118 -0.725626,-0.154512 -0.584497,-0.329872 -0.775779,-0.327519 -0.809093,0.0099 -0.01977,0.200155 -0.108248,0.316644 -0.391732,0.515724 -0.201415,0.141442 -0.369943,0.30917 -0.374509,0.372724 -0.0047,0.06356 -0.01389,0.160438 -0.02072,0.215286 -0.02482,0.199402 -0.505966,0.362606 -1.019607,0.345847 -0.701784,-0.02291 -0.69045,-0.02706 -0.747211,0.275479 -0.06271,0.334299 0.25904,1.605794 0.712268,2.814679 0.35077,0.93561 0.481157,1.223346 1.442973,3.18436 l 0.659197,1.344018 -0.0144,-0.448007 c -0.01869,-0.58081 0.06243,-0.933112 0.318819,-1.384746 0.41748,-0.735397 1.224029,-1.460792 2.268009,-2.03981 0.264586,-0.146743 0.537773,-0.301818 0.607088,-0.344608 0.07883,-0.04866 0.162894,-0.312127 0.224482,-0.703537 0.324744,-2.063833 1.423811,-3.984666 2.889361,-5.049705 0.682635,-0.496083 1.965695,-0.903916 2.843755,-0.903916 0.928824,0 1.838613,0.324704 2.46922,0.881263 0.910164,0.803296 1.25399,1.98698 1.092663,3.761707 -0.08923,0.98168 -0.253292,1.551528 -0.809567,2.811986 -0.237123,0.537296 -0.432405,1.126013 -0.486356,1.466202 -0.522908,3.297342 -2.1854,6.118325 -4.887717,8.293683 -0.662702,0.533471 -1.595434,1.194135 -1.685893,1.194135 -0.03757,0 -0.211033,0.09698 -0.385463,0.215507 -0.174428,0.118528 -0.663243,0.371394 -1.086251,0.561925 -0.429624,0.193508 -0.954152,0.506051 -1.188328,0.708071 -1.830215,1.578895 -3.17271,2.456711 -4.158758,2.719284 -0.898449,0.239246 -1.376691,0.09122 -1.776656,-0.549909 -0.146937,-0.235534 -0.441301,-0.705214 -0.654139,-1.04373 -0.212839,-0.338515 -0.430981,-0.707122 -0.484763,-0.819122 -0.05378,-0.112004 -0.158002,-0.295277 -0.2316,-0.407278 -0.240453,-0.36591 -0.727892,-1.312916 -0.980398,-1.904733 -0.136027,-0.318816 -0.279974,-0.652975 -0.319886,-0.742576 -0.142043,-0.31889 -0.313126,-0.910524 -0.436582,-1.509774 -0.306361,-1.487051 -0.336782,-2.078193 -0.324719,-6.309967 l 0.01186,-4.154239 h -1.387759 -1.387758 l 0.05155,1.018196 c 0.26723,5.278103 0.08211,8.570207 -0.595659,10.593221 -0.37898,1.131176 -1.279543,2.898694 -2.23909,4.394618 -0.100576,0.156801 -0.320612,0.498761 -0.488962,0.759912 -0.531422,0.824366 -1.039392,0.964964 -2.115056,0.585418 z m 7.851422,-19.892057 c 0.02099,-0.01853 -0.06258,-0.334165 -0.185755,-0.701427 -0.123168,-0.367267 -0.221939,-0.814374 -0.219481,-0.993576 0.01199,-0.874822 0.394547,-1.709104 1.159004,-2.527679 0.530246,-0.56778 0.606168,-0.618373 1.218078,-0.811674 0.358923,-0.113388 1.006527,-0.262801 1.43912,-0.332044 0.432591,-0.06923 1.0981,-0.247045 1.478903,-0.39512 0.380807,-0.148074 0.820667,-0.303223 0.977469,-0.344778 l 0.285096,-0.07555 -0.0012,-1.218441 c -0.0012,-1.10997 -0.02186,-1.283577 -0.232365,-1.950019 C 30.129465,10.96482 28.905275,9.4561795 27.190122,8.5368137 26.339694,8.0809661 25.673145,7.8738022 24.637429,7.7434332 23.0371,7.5420013 21.605364,7.8517467 19.999044,8.7469404 c -0.225766,0.1258167 -0.91164,0.6651637 -1.258942,0.9899885 -0.257075,0.2404332 -0.995887,1.1491941 -0.995887,1.2249691 0,0.02035 -0.108801,0.20855 -0.24178,0.418238 -0.653392,1.030289 -1.064379,2.838662 -0.941983,4.144791 l 0.0558,0.595522 0.284648,0.05339 c 0.156558,0.02938 0.565662,0.165922 0.909128,0.303453 0.343462,0.137527 0.918186,0.302594 1.27716,0.366815 0.884262,0.158191 1.906444,0.423818 2.184845,0.56776 0.638401,0.330073 1.402902,1.307381 1.690879,2.161549 0.278924,0.82731 0.291137,1.249111 0.05263,1.817302 -0.112703,0.268478 -0.217709,0.579781 -0.233358,0.691782 -0.02675,0.191448 -0.0016,0.206461 0.419555,0.250736 0.440066,0.04626 1.5516,0.0034 1.62658,-0.06266 z"
       id="path59" />
  </g>
</svg>
