<?xml version="1.0" standalone="no"?>
<!DOCTYPE svg PUBLIC "-//W3C//DTD SVG 20010904//EN"
 "http://www.w3.org/TR/2001/REC-SVG-20010904/DTD/svg10.dtd">
<svg version="1.0" xmlns="http://www.w3.org/2000/svg"
 width="700.000000pt" height="700.000000pt" viewBox="0 0 700.000000 700.000000"
 preserveAspectRatio="xMidYMid meet">
<metadata>
Created by potrace 1.14, written by Peter Selinger 2001-2017
</metadata>
<g transform="translate(0.000000,700.000000) scale(0.100000,-0.100000)"
fill="#000000" stroke="none">
<path d="M3368 6225 c-2 -1 -40 -5 -85 -8 -94 -7 -157 -23 -302 -79 -114 -45
-115 -45 -221 -107 -106 -63 -151 -100 -267 -218 -190 -193 -314 -417 -382
-688 -28 -110 -32 -148 -33 -315 0 -212 15 -319 67 -472 l33 -97 -83 -77
c-131 -121 -158 -193 -104 -281 39 -63 92 -71 188 -27 63 29 96 28 96 -2 1
-27 18 -48 70 -84 27 -18 45 -40 51 -61 17 -60 90 -92 173 -77 25 4 53 6 62 3
53 -17 19 -197 -88 -469 -63 -161 -76 -190 -189 -425 -46 -96 -84 -178 -84
-182 0 -5 -4 -9 -10 -9 -5 0 -10 15 -11 33 -3 143 -73 273 -206 380 -37 30
-114 82 -169 116 -114 68 -109 60 -148 224 -34 144 -96 304 -154 401 -60 103
-194 239 -287 294 -218 128 -444 146 -650 52 -112 -52 -215 -184 -245 -315
-13 -55 -16 -275 -6 -370 9 -78 38 -178 88 -295 65 -151 89 -225 104 -315 10
-62 65 -256 94 -334 66 -180 177 -378 288 -511 65 -78 275 -289 329 -330 26
-19 52 -40 58 -47 31 -30 197 -130 355 -213 152 -80 221 -124 272 -173 13 -13
125 -101 183 -144 210 -157 401 -242 506 -227 19 3 49 15 67 27 78 51 353 519
450 767 47 120 80 249 98 390 3 25 7 56 10 70 18 109 25 712 14 1149 l-5 174
188 1 c104 1 194 -2 200 -6 8 -5 11 -185 13 -620 0 -337 4 -640 8 -673 13
-115 15 -125 37 -235 33 -168 125 -394 245 -600 229 -394 263 -437 354 -444
79 -6 211 37 315 103 22 14 50 31 62 38 36 19 168 119 290 219 84 69 145 109
250 163 180 93 235 124 311 178 473 337 744 744 851 1279 24 115 31 138 107
325 90 223 116 418 85 614 -23 141 -120 286 -227 340 -21 11 -41 22 -44 25 -9
11 -125 42 -180 48 -116 15 -315 -30 -433 -96 -214 -121 -409 -425 -466 -727
-28 -145 -24 -140 -123 -196 -170 -97 -309 -228 -359 -336 -14 -32 -24 -78
-28 -137 l-6 -89 -112 229 c-61 126 -128 270 -148 319 -109 262 -171 513 -137
547 7 7 45 13 86 14 117 2 166 22 166 67 0 10 25 42 56 71 33 31 56 60 57 74
3 43 28 44 108 6 80 -39 115 -40 157 -4 30 25 53 98 45 147 -6 42 -41 95 -88
133 -16 13 -47 41 -68 62 -44 43 -44 48 -2 196 43 152 50 211 48 407 -2 256
-38 424 -133 620 -79 163 -170 294 -280 403 -51 50 -225 192 -236 192 -4 0
-22 11 -40 25 -85 65 -332 159 -474 181 -42 6 -376 14 -382 9z m312 -369 c375
-62 701 -348 830 -732 37 -109 41 -138 43 -327 l2 -158 -130 -45 c-133 -46
-213 -69 -275 -79 -61 -9 -211 -47 -257 -65 -88 -33 -231 -204 -274 -325 -39
-113 -38 -155 12 -324 26 -85 28 -84 -146 -83 -118 0 -125 1 -132 19 -4 9 7
53 22 97 38 105 38 174 1 281 -34 98 -98 196 -176 268 -63 59 -111 79 -260
112 -174 39 -281 67 -337 89 -33 13 -82 29 -110 35 -50 12 -51 13 -56 54 -5
47 -1 241 6 272 2 11 7 38 11 60 26 148 112 339 206 456 156 196 355 321 607
383 85 21 117 24 238 21 77 -2 156 -6 175 -9z"/>
</g>
</svg>
